<?xml version="1.0" encoding="UTF-8"?>
<!DOCTYPE svg PUBLIC "-//W3C//DTD SVG 1.1//EN" "http://www.w3.org/Graphics/SVG/1.1/DTD/svg11.dtd">
<svg version="1.1" xmlns="http://www.w3.org/2000/svg" xmlns:xlink="http://www.w3.org/1999/xlink" width="16" height="16"  xml:space="preserve" id="wIKWriteDiscard">
    <!-- Generated by PaintCode (www.paintcodeapp.com) -->
    <path id="wIKWriteDiscard-rectangle" stroke="rgb(0, 0, 0)" stroke-width="1.5" fill="none" d="M 4.53,5.5 L 13,5.5 13,13.47 C 13,13.91 13,14.13 12.93,14.33 L 12.93,14.37 C 12.83,14.63 12.63,14.83 12.37,14.93 12.13,15 11.91,15 11.47,15 L 4.53,15 C 4.09,15 3.87,15 3.67,14.93 L 3.63,14.93 C 3.37,14.83 3.17,14.63 3.07,14.37 3,14.13 3,13.91 3,13.47 L 3,5.5 Z M 4.53,5.5" />
    <path id="wIKWriteDiscard-bezier" stroke="rgb(0, 0, 0)" stroke-width="1.5" stroke-linecap="round" stroke-miterlimit="10" fill="none" d="M 1,3.5 L 15,3.5" />
    <path id="wIKWriteDiscard-rectangle2" stroke="rgb(0, 0, 0)" stroke-width="1.5" fill="none" d="M 8,1 L 8,1 C 9.75,1 9.75,1 9.75,1 L 9.75,1 C 10.44,1 11,1.56 11,2.25 11,2.25 11,2.25 11,2.25 11,2.25 11,2.25 11,2.25 L 11,2.25 C 11,2.25 11,2.25 11,2.25 L 11,3.5 5,3.5 5,2.25 C 5,1.56 5.56,1 6.25,1 6.25,1 6.25,1 6.25,1 L 8,1 Z M 8,1" />
    <path id="wIKWriteDiscard-bezier2" stroke="rgb(0, 0, 0)" stroke-width="1.3" stroke-miterlimit="10" fill="none" d="M 5.5,5 L 5.5,15" />
    <path id="wIKWriteDiscard-bezier3" stroke="rgb(0, 0, 0)" stroke-width="1.3" stroke-miterlimit="10" fill="none" d="M 8,5 L 8,15" />
    <path id="wIKWriteDiscard-bezier4" stroke="rgb(0, 0, 0)" stroke-width="1.3" stroke-miterlimit="10" fill="none" d="M 10.5,5 L 10.5,15" />
</svg>
