<?xml version="1.0" encoding="UTF-8"?>
<!DOCTYPE svg PUBLIC "-//W3C//DTD SVG 1.1//EN" "http://www.w3.org/Graphics/SVG/1.1/DTD/svg11.dtd">
<svg version="1.1" xmlns="http://www.w3.org/2000/svg" xmlns:xlink="http://www.w3.org/1999/xlink" width="16" height="16"  xml:space="preserve" id="wIKReadInbox">
    <!-- Generated by PaintCode (www.paintcodeapp.com) -->
    <g id="wIKReadInbox-group2">
        <path id="wIKReadInbox-bezier" stroke="rgb(0, 0, 0)" stroke-width="1.3" stroke-linejoin="round" stroke-miterlimit="10" fill="none" d="M 12.67,3.5 C 12.67,3.5 15,7.5 15,7.5 L 11.3,7.5 C 10.82,8.67 9.52,9.5 8,9.5 6.48,9.5 5.18,8.67 4.7,7.5 L 1,7.5 3.33,3.5 12.67,3.5 Z M 12.67,3.5" />
        <path id="wIKReadInbox-bezier2" stroke="rgb(0, 0, 0)" stroke-width="1.3" stroke-linejoin="round" stroke-miterlimit="10" fill="none" d="M 15,7.5 C 15,7.5 15,12.5 15,12.5 L 1,12.5 1,7.5 4.7,7.5 C 5.18,8.67 6.48,9.5 8,9.5 9.52,9.5 10.82,8.67 11.3,7.5 L 15,7.5 15,7.5 Z M 15,7.5" />
    </g>
</svg>
