<?xml version="1.0" encoding="UTF-8"?>
<!DOCTYPE svg PUBLIC "-//W3C//DTD SVG 1.1//EN" "http://www.w3.org/Graphics/SVG/1.1/DTD/svg11.dtd">
<svg version="1.1" xmlns="http://www.w3.org/2000/svg" xmlns:xlink="http://www.w3.org/1999/xlink" width="16" height="16"  xml:space="preserve" id="wIKWriteCloud">
    <!-- Generated by PaintCode (www.paintcodeapp.com) -->
    <path id="wIKWriteCloud-bezier2" stroke="rgb(0, 0, 0)" stroke-width="1.5" stroke-miterlimit="10" fill="none" d="M 9.44,3.25 C 8.04,3.25 7.01,4.06 6.52,5.03 L 6.53,5.03 C 6.44,5.21 6.22,5.28 6.05,5.19 5.44,4.89 4.72,4.92 4.15,5.26 3.58,5.61 3.15,6.24 3.15,7.21 L 3.15,7.21 C 3.15,7.38 3.03,7.53 2.86,7.56 1.78,7.75 1,8.83 1,9.91 1,11.21 2.02,12.25 3.69,12.25 L 12.49,12.25 C 13.88,12.25 15,11.13 15,9.73 15,8.5 14.13,7.48 12.98,7.25 L 12.97,7.25 C 12.79,7.21 12.66,7.04 12.68,6.86 12.86,5.08 11.46,3.25 9.44,3.25 Z M 9.44,3.25" />
</svg>
