<?xml version="1.0" encoding="UTF-8"?>
<!DOCTYPE svg PUBLIC "-//W3C//DTD SVG 1.1//EN" "http://www.w3.org/Graphics/SVG/1.1/DTD/svg11.dtd">
<svg version="1.1" xmlns="http://www.w3.org/2000/svg" xmlns:xlink="http://www.w3.org/1999/xlink" width="1000" height="1000"  xml:space="preserve" id="identity">
    <!-- Generated by PaintCode (www.paintcodeapp.com) -->
    <g id="identity-group">
        <path id="identity-rectangle" stroke="rgb(0, 0, 0)" stroke-width="15" stroke-linejoin="round" stroke-miterlimit="10" fill="none" d="M 364.38,737.18 L 592.91,509 364.38,280.82 135.85,509 364.38,737.18 Z M 364.38,737.18" />
        <path id="identity-rectangle2" stroke="rgb(0, 0, 0)" stroke-width="15" stroke-linejoin="round" stroke-miterlimit="10" fill="none" d="M 638.62,737.18 L 867.15,509 638.62,280.82 410.09,509 638.62,737.18 Z M 638.62,737.18" />
        <path id="identity-rectangle5" stroke="rgb(0, 0, 0)" stroke-width="15" stroke-linejoin="round" stroke-miterlimit="10" fill="none" d="M 364.38,737.18 L 867.15,509 364.38,280.82 592.91,509 364.38,737.18 Z M 364.38,737.18" />
        <path id="identity-rectangle6" stroke="rgb(0, 0, 0)" stroke-width="15" stroke-linejoin="round" stroke-miterlimit="10" fill="none" d="M 638.62,737.18 L 410.09,509 638.62,280.82 135.85,509 638.62,737.18 Z M 638.62,737.18" />
        <path id="identity-rectangle7" stroke="rgb(0, 0, 0)" stroke-width="15" stroke-linejoin="round" stroke-miterlimit="10" fill="none" d="M 867.15,509 L 135.85,509 867.15,509 Z M 867.15,509" />
        <path id="identity-rectangle8" stroke="rgb(0, 0, 0)" stroke-width="15" stroke-linejoin="round" stroke-miterlimit="10" fill="none" d="M 364.38,737.18 L 410.09,509 364.38,280.82 410.09,509 364.38,737.18 Z M 364.38,737.18" />
        <path id="identity-rectangle9" stroke="rgb(0, 0, 0)" stroke-width="15" stroke-linejoin="round" stroke-miterlimit="10" fill="none" d="M 638.62,737.18 L 592.91,509 638.62,280.82 592.91,509 638.62,737.18 Z M 638.62,737.18" />
        <circle id="identity-oval" stroke="rgb(0, 0, 0)" stroke-width="40" fill="rgb(0, 0, 0)" cx="365" cy="281" r="23" />
        <circle id="identity-oval2" stroke="rgb(0, 0, 0)" stroke-width="40" fill="rgb(0, 0, 0)" cx="638" cy="281" r="23" />
        <circle id="identity-oval3" stroke="rgb(0, 0, 0)" stroke-width="40" fill="rgb(0, 0, 0)" cx="638" cy="737" r="23" />
        <circle id="identity-oval4" stroke="rgb(0, 0, 0)" stroke-width="40" fill="rgb(0, 0, 0)" cx="365" cy="737" r="23" />
        <ellipse id="identity-oval5" stroke="rgb(0, 0, 0)" stroke-width="40" fill="rgb(0, 0, 0)" cx="136" cy="509" rx="23" ry="22" />
        <ellipse id="identity-oval6" stroke="rgb(0, 0, 0)" stroke-width="40" fill="rgb(0, 0, 0)" cx="867" cy="509" rx="23" ry="22" />
        <ellipse id="identity-oval8" stroke="rgb(0, 0, 0)" stroke-width="40" fill="rgb(0, 0, 0)" cx="592.5" cy="509" rx="22.5" ry="22" />
        <ellipse id="identity-oval9" stroke="rgb(0, 0, 0)" stroke-width="40" fill="rgb(0, 0, 0)" cx="410.5" cy="509" rx="22.5" ry="22" />
    </g>
</svg>
