<?xml version="1.0" encoding="UTF-8"?>
<!DOCTYPE svg PUBLIC "-//W3C//DTD SVG 1.1//EN" "http://www.w3.org/Graphics/SVG/1.1/DTD/svg11.dtd">
<svg version="1.1" xmlns="http://www.w3.org/2000/svg" xmlns:xlink="http://www.w3.org/1999/xlink" width="100" height="100"  xml:space="preserve" id="logo">
    <!-- Generated by PaintCode (www.paintcodeapp.com) -->
    <defs>
        <linearGradient id="logo-tickgradient-rectangle3" x1="0.62" y1="-42" x2="0.63" y2="-28.5" gradientUnits="userSpaceOnUse" >
            <stop offset="0.06" stop-color="rgb(0, 0, 0)" stop-opacity="0" />
            <stop offset="1" stop-color="rgb(37, 37, 37)" stop-opacity="1" />
        </linearGradient>
        <linearGradient id="logo-tickgradient-rectangle4" x1="0.62" y1="-42" x2="0.63" y2="-28.5" gradientUnits="userSpaceOnUse" >
            <stop offset="0.06" stop-color="rgb(0, 0, 0)" stop-opacity="0" />
            <stop offset="1" stop-color="rgb(37, 37, 37)" stop-opacity="1" />
        </linearGradient>
        <linearGradient id="logo-tickgradient-rectangle5" x1="0.62" y1="-42" x2="0.63" y2="-28.5" gradientUnits="userSpaceOnUse" >
            <stop offset="0.06" stop-color="rgb(0, 0, 0)" stop-opacity="0" />
            <stop offset="1" stop-color="rgb(37, 37, 37)" stop-opacity="1" />
        </linearGradient>
        <linearGradient id="logo-tickgradient-rectangle6" x1="0.62" y1="-42" x2="0.63" y2="-28.5" gradientUnits="userSpaceOnUse" >
            <stop offset="0.06" stop-color="rgb(0, 0, 0)" stop-opacity="0" />
            <stop offset="1" stop-color="rgb(37, 37, 37)" stop-opacity="1" />
        </linearGradient>
        <linearGradient id="logo-tickgradient-rectangle7" x1="0.62" y1="-42" x2="0.63" y2="-28.5" gradientUnits="userSpaceOnUse" >
            <stop offset="0.06" stop-color="rgb(0, 0, 0)" stop-opacity="0" />
            <stop offset="1" stop-color="rgb(37, 37, 37)" stop-opacity="1" />
        </linearGradient>
        <linearGradient id="logo-tickgradient-rectangle8" x1="0.62" y1="-42" x2="0.63" y2="-28.5" gradientUnits="userSpaceOnUse" >
            <stop offset="0.06" stop-color="rgb(0, 0, 0)" stop-opacity="0" />
            <stop offset="1" stop-color="rgb(37, 37, 37)" stop-opacity="1" />
        </linearGradient>
        <linearGradient id="logo-tickgradient-rectangle9" x1="0.62" y1="-42" x2="0.63" y2="-28.5" gradientUnits="userSpaceOnUse" >
            <stop offset="0.06" stop-color="rgb(0, 0, 0)" stop-opacity="0" />
            <stop offset="1" stop-color="rgb(37, 37, 37)" stop-opacity="1" />
        </linearGradient>
    </defs>
    <g id="logo-group3" clip-path="url(#logo-rectangle2)" transform="translate(-5, -5) scale(1.1, 1.1)" >
        <clipPath id="logo-rectangle2">
            <rect x="0" y="-100" width="100" height="100"  transform="translate(0, 100)" />
        </clipPath>
        <rect id="logo-rectangle" stroke="none" fill="rgb(229, 229, 229)" x="0" y="0" width="100" height="100" />
        <g id="logo-group2">
            <g id="logo-group">
                <g id="logo-group4" transform="translate(49, 52) rotate(50.5)" >
                    <rect id="logo-rectangle3" stroke="none" fill="url(#logo-tickgradient-rectangle3)" x="-1" y="-42" width="3.25" height="13.5" />
                </g>
                <g id="logo-group5" transform="translate(49, 52) rotate(101)" >
                    <rect id="logo-rectangle4" stroke="none" fill="url(#logo-tickgradient-rectangle4)" x="-1" y="-42" width="3.25" height="13.5" />
                </g>
                <g id="logo-group6" transform="translate(49, 52) rotate(152)" >
                    <rect id="logo-rectangle5" stroke="none" fill="url(#logo-tickgradient-rectangle5)" x="-1" y="-42" width="3.25" height="13.5" />
                </g>
                <g id="logo-group7" transform="translate(49, 52) rotate(-155.5)" >
                    <rect id="logo-rectangle6" stroke="none" fill="url(#logo-tickgradient-rectangle6)" x="-1" y="-42" width="3.25" height="13.5" />
                </g>
                <g id="logo-group8" transform="translate(49, 52) rotate(-103.5)" >
                    <rect id="logo-rectangle7" stroke="none" fill="url(#logo-tickgradient-rectangle7)" x="-1" y="-42" width="3.25" height="13.5" />
                </g>
                <g id="logo-group9" transform="translate(49, 52) rotate(-51.5)" >
                    <rect id="logo-rectangle8" stroke="none" fill="url(#logo-tickgradient-rectangle8)" x="-1" y="-42" width="3.25" height="13.5" />
                </g>
                <g id="logo-group10" transform="translate(49, 52)" >
                    <rect id="logo-rectangle9" stroke="none" fill="url(#logo-tickgradient-rectangle9)" x="-1" y="-42" width="3.25" height="13.5" />
                </g>
            </g>
            <path id="logo-hair" stroke="none" fill="rgb(37, 37, 37)" fill-opacity="0.8" d="M 83,51.3 L 83,51.61 C 82.92,60.08 79.71,67.79 74.49,73.62 73.17,72.37 71.47,70.77 71.47,70.77 75.7,65.67 78.24,59.11 78.24,51.94 78.24,35.73 65.23,22.59 49.17,22.59 48.75,22.59 48.34,22.6 47.93,22.62 47.93,22.62 47.93,19.93 47.93,18.06 48.61,18.02 49.3,18 50,18 68.23,18 83,32.91 83,51.3 Z M 83,51.3" />
            <circle id="logo-face" stroke="rgb(37, 37, 37)" stroke-width="3.25" fill="none" cx="49" cy="52" r="28" />
            <path id="logo-smile" stroke="none" fill="rgb(37, 37, 37)" d="M 61.24,61.64 C 57.71,65.98 52.37,68.75 46.4,68.75 41.41,68.75 36.77,66.91 33.44,63.65 32.21,62.45 30.24,63.79 32.14,65.43 36.21,68.96 41.43,71.19 47.2,71.19 53.88,71.19 59.89,68.28 64.07,63.63 65.29,62.2 62.81,59.81 61.24,61.64 Z M 61.24,61.64" />
            <circle id="logo-eyeright" stroke="none" fill="rgb(37, 37, 37)" cx="55.1" cy="46.73" r="2.45" />
            <circle id="logo-eyeleft" stroke="none" fill="rgb(37, 37, 37)" cx="36.8" cy="44.31" r="2.45" />
        </g>
    </g>
</svg>
